<?xml version="1.0" encoding="UTF-8" standalone="no" ?>
<!DOCTYPE svg PUBLIC "-//W3C//DTD SVG 1.1//EN" "http://www.w3.org/Graphics/SVG/1.1/DTD/svg11.dtd">
<svg xmlns="http://www.w3.org/2000/svg" xmlns:xlink="http://www.w3.org/1999/xlink" version="1.1" width="500" height="500" viewBox="0 0 500 500" xml:space="preserve">
<desc>Created with Fabric.js 3.6.3</desc>
<defs>
</defs>
<g transform="matrix(0.5 0 0 0.5 250.25 250.25)"  >
<rect style="stroke: none; stroke-width: 1; stroke-dasharray: none; stroke-linecap: butt; stroke-dashoffset: 0; stroke-linejoin: miter; stroke-miterlimit: 4; fill: rgb(169,6,65); fill-rule: nonzero; opacity: 1;"  x="-500" y="-500" rx="0" ry="0" width="1000" height="1000" />
</g>
<g transform="matrix(1 0 0 1 250.50337841654522 351.6858509177878)" style=""  ><path fill="#ffffff" opacity="1" d="M-139.60-7.26L-142.44 2.72L-136.59 2.72L-139.60-7.26ZM-134.75 8.71L-136.41 3.29L-142.59 3.29L-144.09 8.41L-142.13 9.16L-142.13 9.47L-146.65 9.47L-146.65 9.16L-144.70 8.41L-138.82-12.08L-138.37-12.08L-132.04 8.71L-130.23 9.16L-130.23 9.47L-136.56 9.47L-136.56 9.16L-134.75 8.71Z"/><path fill="#ffffff" opacity="1" d="M-123.33-11.02L-123.33 8.71L-121.52 9.16L-121.52 9.47L-127.70 9.47L-127.70 9.16L-125.89 8.71L-125.89-10.87L-127.70-11.33L-127.70-11.63L-116.10-11.63Q-116.16-11.36-116.19-10.99L-116.19-10.99Q-116.22-10.66-116.24-10.23Q-116.25-9.79-116.25-9.22L-116.25-9.22Q-116.25-8.79-116.24-8.39Q-116.22-7.98-116.19-7.62L-116.19-7.62Q-116.16-7.20-116.10-6.81L-116.10-6.81L-116.40-6.81Q-117.18-7.59-117.70-8.67Q-118.21-9.76-118.21-11.02L-118.21-11.02L-123.33-11.02Z"/><path fill="#ffffff" opacity="1" d="M-107.84 8.86L-101.82 8.86Q-101.82 7.60-101.30 6.51Q-100.79 5.43-100.01 4.64L-100.01 4.64L-99.71 4.64Q-99.77 5.04-99.80 5.46L-99.80 5.46Q-99.83 5.82-99.84 6.24Q-99.86 6.66-99.86 7.06L-99.86 7.06Q-99.86 7.63-99.84 8.06Q-99.83 8.50-99.80 8.83L-99.80 8.83Q-99.77 9.19-99.71 9.47L-99.71 9.47L-112.21 9.47L-112.21 9.16L-110.40 8.71L-110.40-10.87L-112.21-11.33L-112.21-11.63L-100.01-11.63Q-100.07-11.36-100.10-10.99L-100.10-10.99Q-100.13-10.66-100.14-10.23Q-100.16-9.79-100.16-9.22L-100.16-9.22Q-100.16-8.79-100.14-8.39Q-100.13-7.98-100.10-7.62L-100.10-7.62Q-100.07-7.20-100.01-6.81L-100.01-6.81L-100.31-6.81Q-101.09-7.59-101.61-8.67Q-102.12-9.76-102.12-11.02L-102.12-11.02L-107.84-11.02L-107.84-1.98L-104.98-1.98L-103.63-4.70L-103.32-4.70L-103.32 1.33L-103.63 1.33L-104.98-1.38L-107.84-1.38L-107.84 8.86Z"/><path fill="#ffffff" opacity="1" d="M-84.67-1.38L-90.85-1.38L-90.85 8.71L-89.04 9.16L-89.04 9.47L-95.22 9.47L-95.22 9.16L-93.41 8.71L-93.41-10.87L-95.22-11.33L-95.22-11.63L-89.04-11.63L-89.04-11.33L-90.85-10.87L-90.85-1.98L-84.67-1.98L-84.67-10.87L-86.48-11.33L-86.48-11.63L-80.30-11.63L-80.30-11.33L-82.11-10.87L-82.11 8.71L-80.30 9.16L-80.30 9.47L-86.48 9.47L-86.48 9.16L-84.67 8.71L-84.67-1.38Z"/><path fill="#ffffff" opacity="1" d="M-68.43-11.02L-68.43 8.71L-66.62 9.16L-66.62 9.47L-72.80 9.47L-72.80 9.16L-70.99 8.71L-70.99-11.02L-74.16-11.02Q-74.16-9.76-74.67-8.67Q-75.18-7.59-75.96-6.81L-75.96-6.81L-76.26-6.81Q-76.23-7.20-76.20-7.62L-76.20-7.62Q-76.17-7.98-76.14-8.39Q-76.11-8.79-76.11-9.22L-76.11-9.22Q-76.11-9.79-76.14-10.23Q-76.17-10.66-76.20-10.99L-76.20-10.99Q-76.23-11.36-76.26-11.63L-76.26-11.63L-63.16-11.63Q-63.22-11.36-63.25-10.99L-63.25-10.99Q-63.28-10.66-63.29-10.23Q-63.31-9.79-63.31-9.22L-63.31-9.22Q-63.31-8.79-63.29-8.39Q-63.28-7.98-63.25-7.62L-63.25-7.62Q-63.22-7.20-63.16-6.81L-63.16-6.81L-63.46-6.81Q-64.24-7.59-64.75-8.67Q-65.27-9.76-65.27-11.02L-65.27-11.02L-68.43-11.02Z"/><path fill="#ffffff" opacity="1" d="M-52.19-11.48L-52.19-11.48Q-53.03-11.48-53.85-10.99Q-54.66-10.51-55.29-9.32Q-55.93-8.13-56.32-6.13Q-56.71-4.12-56.71-1.08L-56.71-1.08Q-56.71 1.96-56.32 3.97Q-55.93 5.97-55.26 7.16Q-54.60 8.35-53.73 8.83Q-52.85 9.32-51.89 9.32L-51.89 9.32Q-51.10 9.32-50.29 8.89Q-49.48 8.47-48.80 7.72Q-48.12 6.96-47.65 5.94Q-47.19 4.92-47.07 3.74L-47.07 3.74L-46.61 3.74Q-46.74 5.10-47.22 6.23Q-47.70 7.36-48.44 8.19Q-49.18 9.01-50.14 9.47Q-51.10 9.92-52.19 9.92L-52.19 9.92Q-53.61 9.92-54.93 9.24Q-56.26 8.56-57.30 7.19Q-58.34 5.82-58.95 3.76Q-59.57 1.69-59.57-1.08L-59.57-1.08Q-59.57-3.85-58.95-5.92Q-58.34-7.98-57.33-9.35Q-56.32-10.72-55.05-11.40Q-53.79-12.08-52.49-12.08L-52.49-12.08Q-51.77-12.08-51.18-11.84Q-50.59-11.60-50.17-11.30L-50.17-11.30Q-49.69-10.96-49.33-10.54L-49.33-10.54Q-49.09-10.99-48.68-11.40Q-48.27-11.81-47.82-11.93L-47.82-11.93L-47.37-11.93Q-47.43-11.48-47.46-11.02L-47.46-11.02Q-47.49-10.60-47.50-10.14Q-47.52-9.67-47.52-9.22L-47.52-9.22Q-47.52-8.70-47.50-8.21Q-47.49-7.71-47.46-7.29L-47.46-7.29Q-47.43-6.81-47.37-6.35L-47.37-6.35L-47.82-6.35Q-48.51-8.85-49.67-10.17Q-50.83-11.48-52.19-11.48Z"/><path fill="#ffffff" opacity="1" d="M-35.50-11.02L-35.50 8.71L-33.69 9.16L-33.69 9.47L-39.87 9.47L-39.87 9.16L-38.06 8.71L-38.06-11.02L-41.22-11.02Q-41.22-9.76-41.73-8.67Q-42.25-7.59-43.03-6.81L-43.03-6.81L-43.33-6.81Q-43.30-7.20-43.27-7.62L-43.27-7.62Q-43.24-7.98-43.21-8.39Q-43.18-8.79-43.18-9.22L-43.18-9.22Q-43.18-9.79-43.21-10.23Q-43.24-10.66-43.27-10.99L-43.27-10.99Q-43.30-11.36-43.33-11.63L-43.33-11.63L-30.22-11.63Q-30.28-11.36-30.31-10.99L-30.31-10.99Q-30.34-10.66-30.36-10.23Q-30.37-9.79-30.37-9.22L-30.37-9.22Q-30.37-8.79-30.36-8.39Q-30.34-7.98-30.31-7.62L-30.31-7.62Q-30.28-7.20-30.22-6.81L-30.22-6.81L-30.52-6.81Q-31.31-7.59-31.82-8.67Q-32.33-9.76-32.33-11.02L-32.33-11.02L-35.50-11.02Z"/><path fill="#ffffff" opacity="1" d="M-20.76 9.47L-26.18 9.47L-26.18 9.16L-24.38 8.71L-24.38-10.87L-26.18-11.33L-26.18-11.63L-20.76-11.63Q-19.34-11.63-18.31-11.31Q-17.27-10.99-16.57-10.44Q-15.88-9.88-15.53-9.14Q-15.19-8.40-15.19-7.56L-15.19-7.56Q-15.19-6.90-15.38-6.38Q-15.58-5.87-15.89-5.49Q-16.21-5.12-16.62-4.83Q-17.02-4.55-17.45-4.36L-17.45-4.36Q-18.44-3.91-19.71-3.79L-19.71-3.79Q-17.84-3.61-16.39-2.86L-16.39-2.86Q-15.76-2.53-15.17-2.06Q-14.58-1.59-14.12-0.91Q-13.65-0.24-13.36 0.65Q-13.08 1.54-13.08 2.69L-13.08 2.69Q-13.08 4.10-13.62 5.34Q-14.16 6.57-15.17 7.49Q-16.18 8.41-17.60 8.94Q-19.01 9.47-20.76 9.47L-20.76 9.47ZM-20.76-3.49L-21.82-3.49L-21.82 8.86L-20.76 8.86Q-19.74 8.86-18.86 8.47Q-17.99 8.08-17.34 7.30Q-16.69 6.51-16.32 5.37Q-15.94 4.22-15.94 2.69L-15.94 2.69Q-15.94 1.15-16.32 0.00Q-16.69-1.14-17.34-1.92Q-17.99-2.71-18.86-3.10Q-19.74-3.49-20.76-3.49L-20.76-3.49ZM-21.82-11.02L-21.82-4.09L-20.76-4.09Q-19.41-4.12-18.58-4.98Q-17.75-5.84-17.75-7.56L-17.75-7.56Q-17.75-9.28-18.58-10.15Q-19.41-11.02-20.76-11.02L-20.76-11.02L-21.82-11.02Z"/><path fill="#ffffff" opacity="1" d="M4.82-1.08L4.82-1.08Q4.82 1.69 4.20 3.76Q3.59 5.82 2.58 7.19Q1.57 8.56 0.30 9.24Q-0.96 9.92-2.26 9.92L-2.26 9.92Q-3.56 9.92-4.82 9.24Q-6.09 8.56-7.10 7.19Q-8.11 5.82-8.72 3.76Q-9.34 1.69-9.34-1.08L-9.34-1.08Q-9.34-3.85-8.72-5.92Q-8.11-7.98-7.10-9.35Q-6.09-10.72-4.82-11.40Q-3.56-12.08-2.26-12.08L-2.26-12.08Q-0.96-12.08 0.30-11.40Q1.57-10.72 2.58-9.35Q3.59-7.98 4.20-5.92Q4.82-3.85 4.82-1.08ZM1.96-1.08L1.96-1.08Q1.96-4.18 1.58-6.22Q1.21-8.25 0.59-9.46Q-0.03-10.66-0.78-11.14Q-1.54-11.63-2.26-11.63L-2.26-11.63Q-2.98-11.63-3.74-11.14Q-4.49-10.66-5.11-9.46Q-5.73-8.25-6.10-6.22Q-6.48-4.18-6.48-1.08L-6.48-1.08Q-6.48 2.02-6.10 4.06Q-5.73 6.09-5.11 7.30Q-4.49 8.50-3.74 8.98Q-2.98 9.47-2.26 9.47L-2.26 9.47Q-1.54 9.47-0.78 8.98Q-0.03 8.50 0.59 7.30Q1.21 6.09 1.58 4.06Q1.96 2.02 1.96-1.08Z"/><path fill="#ffffff" opacity="1" d=""/><path fill="#ffffff" opacity="1" d="M25.40-11.48L25.40-11.48Q24.56-11.48 23.74-10.99Q22.93-10.51 22.30-9.32Q21.67-8.13 21.27-6.13Q20.88-4.12 20.88-1.08L20.88-1.08Q20.88 1.96 21.27 3.97Q21.67 5.97 22.33 7.16Q22.99 8.35 23.86 8.83Q24.74 9.32 25.70 9.32L25.70 9.32Q26.49 9.32 27.30 8.89Q28.11 8.47 28.79 7.72Q29.47 6.96 29.94 5.94Q30.40 4.92 30.52 3.74L30.52 3.74L30.98 3.74Q30.86 5.10 30.37 6.23Q29.89 7.36 29.15 8.19Q28.41 9.01 27.45 9.47Q26.49 9.92 25.40 9.92L25.40 9.92Q23.99 9.92 22.66 9.24Q21.33 8.56 20.29 7.19Q19.25 5.82 18.64 3.76Q18.02 1.69 18.02-1.08L18.02-1.08Q18.02-3.85 18.64-5.92Q19.25-7.98 20.26-9.35Q21.27-10.72 22.54-11.40Q23.80-12.08 25.10-12.08L25.10-12.08Q25.82-12.08 26.41-11.84Q27.00-11.60 27.42-11.30L27.42-11.30Q27.90-10.96 28.26-10.54L28.26-10.54Q28.51-10.99 28.91-11.40Q29.32-11.81 29.77-11.93L29.77-11.93L30.22-11.93Q30.16-11.48 30.13-11.02L30.13-11.02Q30.10-10.60 30.09-10.14Q30.07-9.67 30.07-9.22L30.07-9.22Q30.07-8.70 30.09-8.21Q30.10-7.71 30.13-7.29L30.13-7.29Q30.16-6.81 30.22-6.35L30.22-6.35L29.77-6.35Q29.08-8.85 27.92-10.17Q26.76-11.48 25.40-11.48Z"/><path fill="#ffffff" opacity="1" d="M48.12-1.08L48.12-1.08Q48.12 1.69 47.50 3.76Q46.89 5.82 45.88 7.19Q44.87 8.56 43.60 9.24Q42.34 9.92 41.04 9.92L41.04 9.92Q39.74 9.92 38.48 9.24Q37.21 8.56 36.20 7.19Q35.19 5.82 34.58 3.76Q33.96 1.69 33.96-1.08L33.96-1.08Q33.96-3.85 34.58-5.92Q35.19-7.98 36.20-9.35Q37.21-10.72 38.48-11.40Q39.74-12.08 41.04-12.08L41.04-12.08Q42.34-12.08 43.60-11.40Q44.87-10.72 45.88-9.35Q46.89-7.98 47.50-5.92Q48.12-3.85 48.12-1.08ZM45.26-1.08L45.26-1.08Q45.26-4.18 44.88-6.22Q44.51-8.25 43.89-9.46Q43.27-10.66 42.52-11.14Q41.76-11.63 41.04-11.63L41.04-11.63Q40.32-11.63 39.56-11.14Q38.81-10.66 38.19-9.46Q37.58-8.25 37.20-6.22Q36.82-4.18 36.82-1.08L36.82-1.08Q36.82 2.02 37.20 4.06Q37.58 6.09 38.19 7.30Q38.81 8.50 39.56 8.98Q40.32 9.47 41.04 9.47L41.04 9.47Q41.76 9.47 42.52 8.98Q43.27 8.50 43.89 7.30Q44.51 6.09 44.88 4.06Q45.26 2.02 45.26-1.08Z"/><path fill="#ffffff" opacity="1" d="M56.83-11.02L56.83-4.09L57.88-4.09Q59.75-4.09 61.21-3.58Q62.68-3.07 63.67-2.17Q64.66-1.26 65.19-0.03Q65.72 1.21 65.72 2.69L65.72 2.69Q65.72 4.16 65.19 5.40Q64.66 6.63 63.67 7.54Q62.68 8.44 61.21 8.95Q59.75 9.47 57.88 9.47L57.88 9.47L52.46 9.47L52.46 9.16L54.27 8.71L54.27-10.87L52.46-11.33L52.46-11.63L63.46-11.63Q63.40-11.36 63.37-10.99L63.37-10.99Q63.34-10.66 63.32-10.23Q63.31-9.79 63.31-9.22L63.31-9.22Q63.31-8.79 63.32-8.39Q63.34-7.98 63.37-7.62L63.37-7.62Q63.40-7.20 63.46-6.81L63.46-6.81L63.16-6.81Q62.37-7.59 61.86-8.67Q61.35-9.76 61.35-11.02L61.35-11.02L56.83-11.02ZM56.83-3.49L56.83 8.86L57.88 8.86Q60.26 8.86 61.56 7.42Q62.86 5.97 62.86 2.69L62.86 2.69Q62.86-0.60 61.56-2.04Q60.26-3.49 57.88-3.49L57.88-3.49L56.83-3.49Z"/><path fill="#ffffff" opacity="1" d="M88.14-10.87L88.14 8.71L89.95 9.16L89.95 9.47L83.77 9.47L83.77 9.16L85.58 8.71L85.58-10.87L83.77-11.33L83.77-11.63L89.95-11.63L89.95-11.33L88.14-10.87ZM74.13-3.49L75.18-3.49Q77.05-3.49 78.51-2.99Q79.97-2.50 80.97-1.61Q81.96-0.72 82.49 0.46Q83.01 1.63 83.01 2.99L83.01 2.99Q83.01 4.34 82.49 5.52Q81.96 6.69 80.97 7.58Q79.97 8.47 78.51 8.97Q77.05 9.47 75.18 9.47L75.18 9.47L69.76 9.47L69.76 9.16L71.56 8.71L71.56-10.87L69.76-11.33L69.76-11.63L75.93-11.63L75.93-11.33L74.13-10.87L74.13-3.49ZM74.13-2.89L74.13 8.86L75.18 8.86Q77.56 8.86 78.86 7.46Q80.15 6.06 80.15 2.99L80.15 2.99Q80.15-0.09 78.86-1.49Q77.56-2.89 75.18-2.89L75.18-2.89L74.13-2.89Z"/><path fill="#ffffff" opacity="1" d="M101.52-11.02L101.52 8.71L103.32 9.16L103.32 9.47L97.15 9.47L97.15 9.16L98.95 8.71L98.95-11.02L95.79-11.02Q95.79-9.76 95.28-8.67Q94.77-7.59 93.98-6.81L93.98-6.81L93.68-6.81Q93.71-7.20 93.74-7.62L93.74-7.62Q93.77-7.98 93.80-8.39Q93.83-8.79 93.83-9.22L93.83-9.22Q93.83-9.79 93.80-10.23Q93.77-10.66 93.74-10.99L93.74-10.99Q93.71-11.36 93.68-11.63L93.68-11.63L106.79-11.63Q106.73-11.36 106.70-10.99L106.70-10.99Q106.67-10.66 106.65-10.23Q106.64-9.79 106.64-9.22L106.64-9.22Q106.64-8.79 106.65-8.39Q106.67-7.98 106.70-7.62L106.70-7.62Q106.73-7.20 106.79-6.81L106.79-6.81L106.49-6.81Q105.70-7.59 105.19-8.67Q104.68-9.76 104.68-11.02L104.68-11.02L101.52-11.02Z"/><path fill="#ffffff" opacity="1" d="M121.37-6.81L115.20 5.55L115.20 8.71L117.00 9.16L117.00 9.47L110.83 9.47L110.83 9.16L112.63 8.71L112.63-10.87L110.83-11.33L110.83-11.63L117.00-11.63L117.00-11.33L115.20-10.87L115.20 4.34L121.37-8.01L121.37-10.87L119.57-11.33L119.57-11.63L125.74-11.63L125.74-11.33L123.93-10.87L123.93 8.71L125.74 9.16L125.74 9.47L119.57 9.47L119.57 9.16L121.37 8.71L121.37-6.81Z"/><path fill="#ffffff" opacity="1" d="M140.78-6.81L134.60 5.55L134.60 8.71L136.41 9.16L136.41 9.47L130.23 9.47L130.23 9.16L132.04 8.71L132.04-10.87L130.23-11.33L130.23-11.63L136.41-11.63L136.41-11.33L134.60-10.87L134.60 4.34L140.78-8.01L140.78-10.87L138.97-11.33L138.97-11.63L145.15-11.63L145.15-11.33L143.34-10.87L143.34 8.71L145.15 9.16L145.15 9.47L138.97 9.47L138.97 9.16L140.78 8.71L140.78-6.81ZM137.77-14.04L137.77-14.04Q138.34-14.04 138.73-14.47Q139.12-14.91 139.12-15.69L139.12-15.69Q139.12-15.94 139.09-16.13Q139.06-16.33 139.03-16.51L139.03-16.51Q139.00-16.69 138.97-16.90L138.97-16.90L141.08-16.90Q141.11-16.78 141.14-16.63L141.14-16.63Q141.17-16.48 141.20-16.31Q141.23-16.15 141.23-16.00L141.23-16.00Q141.23-14.97 140.40-14.28Q139.57-13.59 137.77-13.59L137.77-13.59Q135.96-13.59 135.13-14.28Q134.30-14.97 134.30-16.00L134.30-16.00Q134.30-16.15 134.31-16.31Q134.33-16.48 134.36-16.63L134.36-16.63Q134.39-16.78 134.45-16.90L134.45-16.90L136.56-16.90Q136.50-16.69 136.47-16.51L136.47-16.51Q136.44-16.33 136.42-16.13Q136.41-15.94 136.41-15.69L136.41-15.69Q136.41-14.91 136.80-14.47Q137.19-14.04 137.77-14.04Z"/></g><g transform="matrix(1 0 0 1 180.84070603637537 247.1109418033493)" style=""  ><path fill="#ffffff" opacity="1" d="M21.26-24.25L11.80 9.08L31.33 9.08L21.26-24.25ZM37.47 29.12L31.94 10.99L11.29 10.99L6.26 28.11L12.80 30.63L12.80 31.63L-2.30 31.63L-2.30 30.63L4.24 28.11L23.88-40.37L25.39-40.37L46.54 29.12L52.58 30.63L52.58 31.63L31.43 31.63L31.43 30.63L37.47 29.12Z"/></g><g transform="matrix(0 -2.3589623081174405 0.6092223524813865 0 250.23961265797283 206.75245473568634)"  >
<path style="stroke: none; stroke-width: 1; stroke-dasharray: none; stroke-linecap: butt; stroke-dashoffset: 0; stroke-linejoin: miter; stroke-miterlimit: 4; fill: rgb(255,255,255); fill-rule: nonzero; opacity: 1;"  transform=" translate(-49.95, -50)" d="M 91.7 49 H 8.3 c -0.6 0 -1 0.4 -1 1 s 0.4 1 1 1 h 83.3 c 0.6 0 1 -0.4 1 -1 S 92.2 49 91.7 49 z" stroke-linecap="round" />
</g>
<g transform="matrix(1 0 0 1 313.8087809028643 166.1191971433968)" style=""  ><path fill="#ffffff" opacity="1" d="M-25.22-38.24L-25.22-38.24Q-28.03-38.24-30.75-36.63Q-33.46-35.03-35.56-31.06Q-37.67-27.09-38.98-20.42Q-40.28-13.74-40.28-3.60L-40.28-3.60Q-40.28 6.54-38.98 13.22Q-37.67 19.89-35.46 23.86Q-33.26 27.82-30.34 29.43Q-27.43 31.04-24.22 31.04L-24.22 31.04Q-21.61 31.04-18.90 29.63Q-16.19 28.23-13.93 25.72Q-11.67 23.21-10.11 19.79Q-8.56 16.38-8.16 12.46L-8.16 12.46L-6.65 12.46Q-7.05 16.98-8.66 20.75Q-10.26 24.51-12.72 27.27Q-15.18 30.03-18.40 31.54Q-21.61 33.05-25.22 33.05L-25.22 33.05Q-29.94 33.05-34.36 30.79Q-38.78 28.53-42.24 23.96Q-45.70 19.39-47.76 12.51Q-49.82 5.64-49.82-3.60L-49.82-3.60Q-49.82-12.84-47.76-19.71Q-45.70-26.59-42.34-31.16Q-38.98-35.73-34.76-37.99Q-30.54-40.25-26.23-40.25L-26.23-40.25Q-23.82-40.25-21.86-39.44Q-19.90-38.64-18.50-37.64L-18.50-37.64Q-16.89-36.53-15.69-35.13L-15.69-35.13Q-14.88-36.63-13.53-37.99Q-12.17-39.34-10.67-39.74L-10.67-39.74L-9.16-39.74Q-9.36-38.24-9.46-36.73L-9.46-36.73Q-9.56-35.33-9.61-33.77Q-9.66-32.21-9.66-30.71L-9.66-30.71Q-9.66-29.00-9.61-27.34Q-9.56-25.69-9.46-24.28L-9.46-24.28Q-9.36-22.68-9.16-21.17L-9.16-21.17L-10.67-21.17Q-12.97-29.50-16.84-33.87Q-20.71-38.24-25.22-38.24Z"/></g><g transform="matrix(0.75 0 0 0.75 206.103450161029 163.10272902867996)"  >
<g style=""   >
		<g transform="matrix(1.3333333333333335 0 0 1.3333333333333335 -17.121301590660604 -38.605824419250595)"  >
<path style="stroke: none; stroke-width: 1; stroke-dasharray: none; stroke-linecap: butt; stroke-dashoffset: 0; stroke-linejoin: miter; stroke-miterlimit: 4; fill: rgb(255,255,255); fill-rule: nonzero; opacity: 1;"  transform=" translate(-37.159023807004544, -21.045631685562054)" d="m 39.031 13.602 c -3.1992 4.0664 -5.1211 8.9961 -5.5117 14.156 c -0.023437 0.26563 0.054688 0.52734 0.22266 0.73047 c 0.17187 0.20703 0.41406 0.33594 0.67969 0.35938 c 0.03125 0.003906 0.066406 0.003906 0.097656 0 c 0.51172 0 0.94141 -0.38672 0.99609 -0.89844 c 0.35156 -4.7617 2.1133 -9.3086 5.0547 -13.066 c 0.35547 -0.42578 0.29688 -1.0586 -0.12891 -1.4102 c -0.42188 -0.35547 -1.0547 -0.29688 -1.4102 0.12891 z" stroke-linecap="round" />
</g>
		<g transform="matrix(1.3333333333333335 0 0 1.3333333333333335 -7.8789872129388545 -52.1923405829997)"  >
<path style="stroke: none; stroke-width: 1; stroke-dasharray: none; stroke-linecap: butt; stroke-dashoffset: 0; stroke-linejoin: miter; stroke-miterlimit: 4; fill: rgb(255,255,255); fill-rule: nonzero; opacity: 1;"  transform=" translate(-44.09075959029586, -10.85574456275023)" d="m 45.789 8.7695 c -1.5938 0.54688 -3.0742 1.3789 -4.3672 2.4531 c -0.21094 0.16797 -0.34766 0.41016 -0.375 0.67578 c -0.027344 0.26953 0.050781 0.53516 0.21875 0.74219 c 0.17188 0.20703 0.41797 0.33984 0.68359 0.36328 c 0.26562 0.023438 0.53125 -0.058594 0.73828 -0.23047 c 1.1094 -0.92578 2.375 -1.6406 3.7422 -2.1133 c 0.25781 -0.078125 0.47266 -0.25781 0.59766 -0.49609 c 0.125 -0.24219 0.14844 -0.52344 0.058594 -0.78125 c -0.085938 -0.25391 -0.27344 -0.46484 -0.51563 -0.58203 c -0.24609 -0.11719 -0.52734 -0.12891 -0.78125 -0.03125 z" stroke-linecap="round" />
</g>
		<g transform="matrix(1.3333333333333335 0 0 1.3333333333333335 -0.48933333333332385 -0.39312000000001035)"  >
<path style="stroke: none; stroke-width: 1; stroke-dasharray: none; stroke-linecap: butt; stroke-dashoffset: 0; stroke-linejoin: miter; stroke-miterlimit: 4; fill: rgb(255,255,255); fill-rule: nonzero; opacity: 1;"  transform=" translate(-49.63300000000001, -49.70515999999999)" d="m 57.145 54.555 c 6.9727 -3.9102 11.875 -13.094 11.875 -23.77 c 0 -14.219 -8.6953 -25.785 -19.387 -25.785 c -10.691 0 -19.387 11.566 -19.387 25.785 c 0 10.676 4.8984 19.859 11.875 23.77 c -0.375 0.38281 -0.57422 0.91016 -0.54297 1.4492 c 0.03125 0.53906 0.28906 1.0391 0.70703 1.3789 l 1.875 1.5742 l -0.38672 1.6992 h -0.003907 c -0.19141 0.83203 0.18359 1.6953 0.92188 2.1289 c 0.73828 0.43359 1.6719 0.33984 2.3086 -0.23438 l 1.6367 -1.4727 v 32.332 c 0 0.55078 0.44531 1 1 1 c 0.55078 0 1 -0.44922 1 -1 v -32.332 l 1.6367 1.4727 h -0.003907 c 0.63672 0.57031 1.5742 0.66797 2.3125 0.23047 c 0.73828 -0.43359 1.1094 -1.2969 0.91406 -2.1328 l -0.38672 -1.6992 l 1.875 -1.5742 c 0.41797 -0.33984 0.67188 -0.83984 0.70312 -1.3789 c 0.03125 -0.53516 -0.16406 -1.0625 -0.53906 -1.4492 z m -24.898 -23.77 c 0 -13.113 7.8008 -23.785 17.387 -23.785 c 9.5898 0 17.387 10.672 17.387 23.785 c 0 13.113 -7.8008 23.785 -17.387 23.785 c -9.5859 -0.003906 -17.387 -10.672 -17.387 -23.785 z m 13.477 30.316 l 0.52344 -2.293 l -0.003906 -0.003906 c 0.085937 -0.36328 -0.042969 -0.74609 -0.32813 -0.98828 l -2.3633 -1.8984 h 1.7656 h -0.003906 c 1.0781 0.33203 2.1953 0.53906 3.3203 0.61719 v 1.8633 z m 7.6328 -3.2812 v -0.003906 c -0.28906 0.24219 -0.41797 0.625 -0.33203 0.98828 l 0.58203 2.2578 l -2.9727 -2.6758 v -1.8516 c 1.1328 -0.082031 2.25 -0.28906 3.3359 -0.625 l 1.7266 -0.058594 z" stroke-linecap="round" />
</g>
		<g transform="matrix(1.3333333333333335 0 0 1.3333333333333335 -31.72026050983826 14.990376225884802)"  >
<path style="stroke: none; stroke-width: 1; stroke-dasharray: none; stroke-linecap: butt; stroke-dashoffset: 0; stroke-linejoin: miter; stroke-miterlimit: 4; fill: rgb(255,255,255); fill-rule: nonzero; opacity: 1;"  transform=" translate(-26.2098046176213, -61.242782169413594)" d="m 39.906 54.941 c -0.52344 -0.17969 -1.0898 0.097656 -1.2734 0.61719 c -1.4922 4.293 -4.4062 7.2266 -8 8.043 c -3.2383 0.73828 -6.6992 -0.28516 -9.7344 -2.8906 v 0.003906 c -3.2969 -2.9727 -5.5586 -6.9141 -6.4648 -11.258 c -2.125 -9.3555 1.6719 -18.23 8.4648 -19.773 c 1.5352 -0.34766 3.1328 -0.30469 4.6445 0.12109 c 0.53516 0.14453 1.0859 -0.17188 1.2305 -0.70313 c 0.14453 -0.53125 -0.16797 -1.082 -0.70313 -1.2305 c -1.832 -0.51172 -3.7617 -0.55859 -5.6133 -0.14062 c -7.8672 1.7891 -12.344 11.734 -9.9727 22.168 c 1 4.7656 3.4922 9.0859 7.1172 12.336 c 1.543 1.3516 3.3477 2.3828 5.2969 3.0234 c -0.042969 0.10938 -0.078126 0.22266 -0.097657 0.33594 c -0.09375 0.71875 0.27344 1.4141 0.91797 1.7422 l 1.4766 0.75781 v 1.1367 h -0.003906 c 0 0.74609 0.48438 1.4062 1.1992 1.6328 c 0.71094 0.22656 1.4883 -0.035156 1.918 -0.64844 l 0.13281 -0.1875 c -0.10547 1.1211 -0.10938 2.2461 -0.015625 3.3633 c 0.14453 2.2148 1.0156 4.3164 2.4727 5.9844 c 0.66797 0.66406 1.3984 1.2617 2.1797 1.7852 c 0.48438 0.34766 0.94531 0.67578 1.3672 1.0391 c 0.94922 0.66797 1.5117 1.7578 1.5 2.918 c -0.27734 0.98828 -0.95312 1.8164 -1.8633 2.2891 c -0.28906 0.19141 -0.58984 0.37109 -0.88672 0.55469 c -0.89844 0.48828 -1.7227 1.1016 -2.4492 1.8203 c -1.2812 1.2344 -1.6055 3.1602 -0.80078 4.7422 c 0.13281 0.23828 0.35938 0.41406 0.62109 0.48047 c 0.26562 0.070313 0.54688 0.027344 0.77734 -0.11719 c 0.23438 -0.14062 0.39453 -0.375 0.45312 -0.64062 s 0.003906 -0.54688 -0.15234 -0.76953 c -0.30859 -0.82031 -0.085937 -1.7422 0.56641 -2.332 c 0.60156 -0.57812 1.2812 -1.0742 2.0195 -1.4727 c 0.32422 -0.19531 0.64453 -0.39062 0.95703 -0.60156 c 1.3906 -0.76562 2.3867 -2.0977 2.7344 -3.6523 c 0.14062 -1.8477 -0.67969 -3.6367 -2.1758 -4.7344 c -0.49219 -0.42188 -1.0117 -0.79297 -1.5117 -1.1523 c -0.67188 -0.44922 -1.3047 -0.96094 -1.8789 -1.5312 c -1.1523 -1.3477 -1.8281 -3.0312 -1.9336 -4.8008 c -0.10156 -1.4844 -0.046875 -2.9805 0.16406 -4.457 l 1.2109 0.67578 h -0.003906 c 0.65234 0.36328 1.4688 0.26172 2.0117 -0.25 c 0.54297 -0.51172 0.69531 -1.3164 0.37109 -1.9922 l -0.49219 -1.0234 l 1 -1.3242 c 0.4375 -0.57031 0.46875 -1.3594 0.070312 -1.9648 c -0.070312 -0.097656 -0.14844 -0.1875 -0.23828 -0.26562 c 1.832 -1.7773 3.2031 -3.9688 4 -6.3867 c 0.17969 -0.51953 -0.09375 -1.0859 -0.60938 -1.2695 z m -10.707 13.387 v -0.84766 c 0 -0.375 -0.20703 -0.71875 -0.54297 -0.88672 l -1.3203 -0.67969 l 0.48047 -0.10937 c 0.24219 0.015624 0.48438 0.035156 0.72266 0.035156 c 0.57031 -0.003906 1.1406 -0.054688 1.7031 -0.14453 c 0.09375 0.27734 0.16797 0.55859 0.22266 0.84375 z m 5.418 -4.0781 l -0.89844 1.1875 c -0.22656 0.30078 -0.26562 0.69922 -0.10156 1.0391 l 0.36719 0.76172 l -1.5234 -0.84766 c -0.058594 -0.39453 -0.15234 -0.78125 -0.26953 -1.1602 c 0.68359 -0.22656 1.3398 -0.51953 1.9688 -0.875 z" stroke-linecap="round" />
</g>
		<g transform="matrix(1.3333333333333335 0 0 1.3333333333333335 -39.50562658450402 -20.592680365306848)"  >
<path style="stroke: none; stroke-width: 1; stroke-dasharray: none; stroke-linecap: butt; stroke-dashoffset: 0; stroke-linejoin: miter; stroke-miterlimit: 4; fill: rgb(255,255,255); fill-rule: nonzero; opacity: 1;"  transform=" translate(-20.370780061621986, -34.555489726019864)" d="m 23.156 30.785 c -2.8828 0.65625 -5.2734 2.8516 -6.7344 6.1797 h -0.003906 c -0.21875 0.50391 0.007812 1.0938 0.51562 1.3164 c 0.125 0.054688 0.26172 0.082031 0.39844 0.082031 c 0.39844 0 0.75781 -0.23438 0.91406 -0.59766 c 1.1992 -2.7344 3.1016 -4.5234 5.3516 -5.0352 c 0.26562 -0.050781 0.5 -0.21094 0.64844 -0.4375 c 0.14844 -0.22656 0.19531 -0.50391 0.13672 -0.76562 c -0.058593 -0.26562 -0.22656 -0.49219 -0.45703 -0.63281 s -0.51172 -0.18359 -0.77344 -0.11328 z" stroke-linecap="round" />
</g>
		<g transform="matrix(1.3333333333333335 0 0 1.3333333333333335 30.267356177568093 17.52848216595226)"  >
<path style="stroke: none; stroke-width: 1; stroke-dasharray: none; stroke-linecap: butt; stroke-dashoffset: 0; stroke-linejoin: miter; stroke-miterlimit: 4; fill: rgb(255,255,255); fill-rule: nonzero; opacity: 1;"  transform=" translate(-72.70051713317606, -63.14636162446419)" d="m 82.93 60.988 l -4.7852 -1.9297 l 0.35547 -5.1484 c 0.082031 -1.2227 -0.63281 -2.3633 -1.7695 -2.8203 c -1.1367 -0.46094 -2.4414 -0.13281 -3.2305 0.80469 l -3.3125 3.957 l -4.7891 -1.9336 c -1.1367 -0.45703 -2.4414 -0.13281 -3.2305 0.80859 c -0.78906 0.94141 -0.88281 2.2852 -0.23047 3.3242 l 2.7383 4.375 l -3.3164 3.9531 v 0.003906 c -0.78906 0.94141 -0.87891 2.2812 -0.23047 3.3242 c 0.65234 1.0391 1.8984 1.543 3.0898 1.2461 l 5.0078 -1.2539 l 2.7383 4.375 h -0.003906 c 0.50781 0.82812 1.4062 1.3359 2.3789 1.3359 c 0.23828 0 0.48047 -0.03125 0.71094 -0.089844 c 1.1992 -0.28516 2.0703 -1.3203 2.1406 -2.5508 l 0.35547 -5.1484 l 5.0078 -1.2539 h 0.003906 c 1.1875 -0.30078 2.0508 -1.332 2.1367 -2.5547 c 0.085938 -1.2266 -0.62891 -2.3672 -1.7656 -2.8242 z m -0.85938 3.4414 l -5.7109 1.4258 c -0.41797 0.10547 -0.72656 0.46875 -0.75391 0.89844 l -0.40625 5.875 c -0.023438 0.36328 -0.27734 0.66406 -0.62891 0.75391 c -0.35156 0.089844 -0.71875 -0.058593 -0.91016 -0.36719 l -3.1211 -4.9922 h -0.003906 c -0.17969 -0.29297 -0.5 -0.46875 -0.84375 -0.46875 c -0.082031 0 -0.16406 0.011718 -0.24609 0.03125 l -5.7148 1.4297 l 0.003906 -0.003906 c -0.35156 0.09375 -0.71875 -0.058594 -0.91016 -0.36719 c -0.19922 -0.30469 -0.17188 -0.70312 0.070312 -0.97656 l 3.7812 -4.5117 v -0.003906 c 0.27734 -0.33203 0.30859 -0.80469 0.078125 -1.1719 l -3.1211 -4.9883 c -0.19141 -0.30859 -0.16797 -0.70313 0.066407 -0.98047 c 0.23047 -0.27734 0.61719 -0.375 0.95312 -0.23828 l 5.4609 2.1992 c 0.40234 0.16406 0.86328 0.046875 1.1406 -0.28516 l 3.7812 -4.5117 c 0.23047 -0.27734 0.61719 -0.375 0.94922 -0.23828 c 0.33594 0.13281 0.54688 0.46875 0.52344 0.83203 l -0.40625 5.875 c -0.03125 0.43359 0.21875 0.83984 0.62109 1 l 5.4609 2.1992 c 0.33594 0.13672 0.54297 0.47266 0.51953 0.83203 c -0.023437 0.36328 -0.27734 0.66406 -0.62891 0.75391 z" stroke-linecap="round" />
</g>
		<g transform="matrix(1.3333333333333335 0 0 1.3333333333333335 39.08154254937789 -14.182711277327138)"  >
<path style="stroke: none; stroke-width: 1; stroke-dasharray: none; stroke-linecap: butt; stroke-dashoffset: 0; stroke-linejoin: miter; stroke-miterlimit: 4; fill: rgb(255,255,255); fill-rule: nonzero; opacity: 1;"  transform=" translate(-79.31115691203341, -39.36296654200465)" d="m 85.801 35.301 l -3.3672 0.12109 l -1.1562 -3.1641 v -0.003906 c -0.32422 -0.9375 -1.2305 -1.5469 -2.2188 -1.4922 c -0.99219 0.023437 -1.8477 0.69531 -2.1094 1.6484 l -0.92188 3.2383 l -3.3672 0.12109 l -0.003906 0.003907 c -0.98438 0.035156 -1.8359 0.70312 -2.1055 1.6523 c -0.27344 0.94922 0.097657 1.9609 0.91797 2.5117 l 2.8008 1.8789 l -0.92578 3.2422 c -0.28516 0.94922 0.089844 1.9727 0.91797 2.5156 c 0.81641 0.55859 1.9023 0.51953 2.6719 -0.10156 l 2.6445 -2.0742 l 2.8008 1.8828 c 0.81641 0.55078 1.8984 0.51172 2.6758 -0.097656 c 0.77734 -0.60547 1.0742 -1.6445 0.73437 -2.5742 l -1.1562 -3.1641 l 2.6523 -2.0781 c 0.77734 -0.60547 1.0742 -1.6445 0.73828 -2.5742 c -0.33984 -0.92578 -1.2383 -1.5312 -2.2227 -1.4922 z m 0.25391 2.4922 l -3.2266 2.5273 v -0.003906 c -0.33984 0.26953 -0.47266 0.72656 -0.32422 1.1328 l 1.4062 3.8477 c 0.050782 0.10938 0.011719 0.24219 -0.089844 0.3125 c -0.089843 0.082031 -0.22656 0.085937 -0.32422 0.011719 l -3.3984 -2.2852 v -0.003907 c -0.35938 -0.24219 -0.83594 -0.22266 -1.1758 0.042969 l -3.2305 2.5234 c -0.09375 0.074218 -0.22266 0.082031 -0.32422 0.015624 c -0.097657 -0.070312 -0.14453 -0.19141 -0.10938 -0.30859 l 1.125 -3.9375 c 0.12109 -0.41797 -0.042968 -0.86328 -0.40234 -1.1055 l -3.3984 -2.2852 c -0.097656 -0.066406 -0.14453 -0.19141 -0.10938 -0.30469 c 0.03125 -0.11719 0.13281 -0.19531 0.25391 -0.20312 l 4.0938 -0.14844 c 0.43359 -0.011719 0.80469 -0.30469 0.92578 -0.72266 l 1.125 -3.9375 h -0.003906 c 0.027343 -0.12109 0.13672 -0.20313 0.25781 -0.19922 h 0.015625 c 0.11719 -0.007813 0.22266 0.066406 0.25391 0.17969 l 1.4062 3.8477 c 0.13281 0.41797 0.53516 0.6875 0.97266 0.65234 l 4.0938 -0.14844 v 0.003906 c 0.12109 -0.003906 0.23047 0.066406 0.26953 0.17969 c 0.042969 0.11328 0.007812 0.23828 -0.089844 0.3125 z" stroke-linecap="round" />
</g>
</g>
</g>
<g transform="matrix(1.1487450538671 0 0 1.1487450538671 293.44827530448435 246.8609418033493)"  >
<g style=""   >
		<g transform="matrix(1 0 0 1 18.000129015320688 -22.44943766684948)"  >
<path style="stroke: none; stroke-width: 1; stroke-dasharray: none; stroke-linecap: butt; stroke-dashoffset: 0; stroke-linejoin: miter; stroke-miterlimit: 4; fill: rgb(255,255,255); fill-rule: nonzero; opacity: 1;"  transform=" translate(-50.00012901532069, -9.55056233315052)" d="M 46.425 11.191 l -0.5 2.923 a 1 1 0 0 0 1.451 1.054 L 50 13.789 l 2.625 1.379 a 1 1 0 0 0 1.451 -1.054 l -0.5 -2.923 L 55.7 9.122 a 1 1 0 0 0 -0.554 -1.706 l -2.935 -0.427 L 50.9 4.33 a 1.042 1.042 0 0 0 -1.794 0 L 47.791 6.989 l -2.935 0.427 A 1 1 0 0 0 44.3 9.122 Z m 2.174 -2.3 a 1 1 0 0 0 0.753 -0.547 L 50 7.032 l 0.648 1.314 a 1 1 0 0 0 0.753 0.547 l 1.45 0.211 L 51.8 10.126 a 1 1 0 0 0 -0.288 0.885 l 0.248 1.444 l -1.3 -0.682 a 1.005 1.005 0 0 0 -0.93 0 l -1.3 0.682 l 0.248 -1.444 a 1 1 0 0 0 -0.288 -0.885 L 47.149 9.1 Z" stroke-linecap="round" />
</g>
		<g transform="matrix(1 0 0 1 -23.99987098467931 -17.44943766684948)"  >
<path style="stroke: none; stroke-width: 1; stroke-dasharray: none; stroke-linecap: butt; stroke-dashoffset: 0; stroke-linejoin: miter; stroke-miterlimit: 4; fill: rgb(255,255,255); fill-rule: nonzero; opacity: 1;"  transform=" translate(-8.00012901532069, -14.55056233315052)" d="M 4.425 16.191 l -0.5 2.923 a 1 1 0 0 0 1.451 1.054 L 8 18.789 l 2.625 1.379 a 1 1 0 0 0 1.451 -1.054 l -0.5 -2.923 L 13.7 14.122 a 1 1 0 0 0 -0.554 -1.706 l -2.935 -0.427 L 8.9 9.33 a 1.042 1.042 0 0 0 -1.794 0 L 5.791 11.989 l -2.935 0.427 A 1 1 0 0 0 2.3 14.122 Z m 2.174 -2.3 a 1 1 0 0 0 0.753 -0.547 L 8 12.032 l 0.648 1.314 a 1 1 0 0 0 0.753 0.547 l 1.45 0.211 L 9.8 15.126 a 1 1 0 0 0 -0.288 0.885 l 0.248 1.444 l -1.3 -0.682 a 1.005 1.005 0 0 0 -0.93 0 l -1.3 0.682 l 0.248 -1.444 a 1 1 0 0 0 -0.288 -0.885 L 5.149 14.1 Z" stroke-linecap="round" />
</g>
		<g transform="matrix(1 0 0 1 -15.169434937869077 -25.17299755612535)"  >
<path style="stroke: none; stroke-width: 1; stroke-dasharray: none; stroke-linecap: butt; stroke-dashoffset: 0; stroke-linejoin: miter; stroke-miterlimit: 4; fill: rgb(255,255,255); fill-rule: nonzero; opacity: 1;"  transform=" translate(-16.830565062130923, -6.82700244387465)" d="M 13.754 8.205 l -0.383 2.235 a 1 1 0 0 0 1.451 1.054 l 2.007 -1.055 l 2.006 1.055 a 1.015 1.015 0 0 0 0.466 0.114 a 1 1 0 0 0 0.986 -1.168 L 19.9 8.205 l 1.623 -1.582 a 1 1 0 0 0 -0.553 -1.706 L 18.729 4.59 l -1 -2.033 a 1.041 1.041 0 0 0 -1.793 0 l -1 2.032 l -2.244 0.327 a 1 1 0 0 0 -0.554 1.706 Z m 1.983 -1.711 a 1 1 0 0 0 0.753 -0.547 l 0.339 -0.688 l 0.339 0.688 a 1 1 0 0 0 0.753 0.547 l 0.759 0.111 l -0.549 0.534 a 1 1 0 0 0 -0.288 0.885 l 0.13 0.756 l -0.679 -0.357 a 1.007 1.007 0 0 0 -0.931 0 l -0.678 0.357 l 0.13 -0.756 a 1 1 0 0 0 -0.289 -0.885 l -0.549 -0.534 Z" stroke-linecap="round" />
</g>
		<g transform="matrix(1 0 0 1 -2.9938414638999244 -6.493856010374511)"  >
<path style="stroke: none; stroke-width: 1; stroke-dasharray: none; stroke-linecap: butt; stroke-dashoffset: 0; stroke-linejoin: miter; stroke-miterlimit: 4; fill: rgb(255,255,255); fill-rule: nonzero; opacity: 1;"  transform=" translate(-29.006158536100074, -25.50614398962549)" d="M 29 27.829 V 28 a 1 1 0 0 0 2 0 v -0.171 a 7.778 7.778 0 0 0 -2.293 -5.536 a 1 1 0 0 0 -1.414 1.414 A 5.789 5.789 0 0 1 29 27.829 Z" stroke-linecap="round" />
</g>
		<g transform="matrix(1 0 0 1 12 -19)"  >
<circle style="stroke: none; stroke-width: 1; stroke-dasharray: none; stroke-linecap: butt; stroke-dashoffset: 0; stroke-linejoin: miter; stroke-miterlimit: 4; fill: rgb(255,255,255); fill-rule: nonzero; opacity: 1;"  cx="0" cy="0" r="1" />
</g>
		<g transform="matrix(1 0 0 1 -7 -27)"  >
<circle style="stroke: none; stroke-width: 1; stroke-dasharray: none; stroke-linecap: butt; stroke-dashoffset: 0; stroke-linejoin: miter; stroke-miterlimit: 4; fill: rgb(255,255,255); fill-rule: nonzero; opacity: 1;"  cx="0" cy="0" r="1" />
</g>
		<g transform="matrix(1 0 0 1 7 -27)"  >
<circle style="stroke: none; stroke-width: 1; stroke-dasharray: none; stroke-linecap: butt; stroke-dashoffset: 0; stroke-linejoin: miter; stroke-miterlimit: 4; fill: rgb(255,255,255); fill-rule: nonzero; opacity: 1;"  cx="0" cy="0" r="1" />
</g>
		<g transform="matrix(1 0 0 1 28 -19)"  >
<circle style="stroke: none; stroke-width: 1; stroke-dasharray: none; stroke-linecap: butt; stroke-dashoffset: 0; stroke-linejoin: miter; stroke-miterlimit: 4; fill: rgb(255,255,255); fill-rule: nonzero; opacity: 1;"  cx="0" cy="0" r="1" />
</g>
		<g transform="matrix(1 0 0 1 -10 -17)"  >
<circle style="stroke: none; stroke-width: 1; stroke-dasharray: none; stroke-linecap: butt; stroke-dashoffset: 0; stroke-linejoin: miter; stroke-miterlimit: 4; fill: rgb(255,255,255); fill-rule: nonzero; opacity: 1;"  cx="0" cy="0" r="1" />
</g>
		<g transform="matrix(1 0 0 1 -27 -27)"  >
<circle style="stroke: none; stroke-width: 1; stroke-dasharray: none; stroke-linecap: butt; stroke-dashoffset: 0; stroke-linejoin: miter; stroke-miterlimit: 4; fill: rgb(255,255,255); fill-rule: nonzero; opacity: 1;"  cx="0" cy="0" r="1" />
</g>
		<g transform="matrix(1 0 0 1 0.0015000000000000568 -0.09086668438354195)"  >
<path style="stroke: none; stroke-width: 1; stroke-dasharray: none; stroke-linecap: butt; stroke-dashoffset: 0; stroke-linejoin: miter; stroke-miterlimit: 4; fill: rgb(255,255,255); fill-rule: nonzero; opacity: 1;"  transform=" translate(-32.0015, -31.909133315616458)" d="M 61.832 33.445 l -2.124 -3.186 a 1 1 0 0 0 -1.665 1.109 l 1.436 2.153 l -21.056 8.24 l -4.933 -8.22 L 54.6 26.2 l 1.227 1.84 a 1 1 0 0 0 1.664 -1.109 l -1.656 -2.485 a 1 1 0 0 0 -0.5 -0.388 l -3.1 -1.081 l 5.527 -6.317 a 1 1 0 0 0 -1.5 -1.318 l -6.061 6.926 L 49.124 21.9 a 11.179 11.179 0 0 0 1.866 -4.756 a 1 1 0 0 0 -1.98 -0.284 A 9.163 9.163 0 0 1 47.127 21.2 l -5.32 -1.85 L 42.868 17.5 a 1 1 0 0 0 -1.736 -0.992 l -1.246 2.18 l -1.612 -0.56 l -0.7 -4.077 L 41.7 10.028 a 1 1 0 0 0 -0.554 -1.706 l -5.7 -0.828 L 32.9 2.33 a 1.042 1.042 0 0 0 -1.794 0 L 28.322 7.965 a 1 1 0 0 0 1.794 0.885 L 32 5.032 L 33.884 8.85 a 1 1 0 0 0 0.753 0.548 l 4.214 0.612 L 35.8 12.981 a 1 1 0 0 0 -0.288 0.886 l 0.72 4.2 l -3.769 -1.982 a 1 1 0 0 0 -0.93 0 l -3.769 1.982 l 0.72 -4.2 a 1 1 0 0 0 -0.288 -0.886 L 25.149 10.01 l 0.744 -0.108 a 1 1 0 0 0 -0.288 -1.98 l -2.749 0.4 a 1 1 0 0 0 -0.554 1.706 l 4.123 4.019 l -0.7 4.077 l -5.8 2.016 A 14.2 14.2 0 0 1 18 13 a 1 1 0 0 0 -2 0 a 16.183 16.183 0 0 0 2.022 7.8 l -1.468 0.511 l -1.7 -2.829 a 1 1 0 1 0 -1.714 1.03 l 1.482 2.47 L 8.672 24.057 a 1 1 0 0 0 -0.5 0.388 l -6 9 a 1 1 0 0 0 0.468 1.486 L 8 37.03 V 53 a 1 1 0 0 0 0.671 0.944 L 16.6 56.7 a 1 1 0 1 0 0.657 -1.888 L 10 52.289 V 48.406 l 21 7.305 v 3.883 L 21.043 56.13 a 1 1 0 1 0 -0.657 1.889 l 11.285 3.925 a 0.994 0.994 0 0 0 0.658 0 l 23 -8 A 1 1 0 0 0 56 53 V 40.348 a 1 1 0 0 0 -2 0 v 0.941 L 33 48.594 V 36.61 l 4.143 6.905 A 1 1 0 0 0 38 44 a 0.986 0.986 0 0 0 0.363 -0.069 l 23 -9 a 1 1 0 0 0 0.468 -1.486 Z m -45.689 -8.93 a 1 1 0 0 0 1.714 -1.03 l -0.252 -0.42 l 1.51 -0.525 a 16.268 16.268 0 0 0 2.549 2.775 l 1.685 1.444 a 1 1 0 1 0 1.3 -1.518 L 22.966 23.8 a 14.181 14.181 0 0 1 -1.859 -1.948 l 4.427 -1.54 a 0.988 0.988 0 0 0 1.369 0.469 L 32 18.1 l 5.1 2.68 a 0.988 0.988 0 0 0 1.369 -0.469 l 0.411 0.143 L 37.132 23.5 a 1 1 0 0 0 0.372 1.364 A 0.988 0.988 0 0 0 38 25 a 1 1 0 0 0 0.869 -0.5 l 1.93 -3.377 l 4.788 1.665 a 9.178 9.178 0 0 1 -3.706 1.774 l -2.1 0.466 A 1 1 0 0 0 40 27 a 1.018 1.018 0 0 0 0.218 -0.024 l 2.1 -0.466 a 11.2 11.2 0 0 0 5.43 -2.975 l 1.27 0.441 a 0.982 0.982 0 0 0 0.327 0.776 a 1 1 0 0 0 1.411 -0.093 l 0.052 -0.06 l 1.152 0.4 L 33.7 31.352 a 8.793 8.793 0 0 0 0.137 -9.907 a 1 1 0 0 0 -1.664 1.11 a 6.791 6.791 0 0 1 -0.158 7.731 l -0.819 1.126 a 0.961 0.961 0 0 0 -0.1 0.214 L 12.044 25 l 3.632 -1.263 Z m -2.4 14.762 a 1 1 0 0 0 0.728 -1.862 L 9.39 35.427 h 0 L 4.521 33.521 L 9.4 26.2 L 30.51 33.541 l -4.933 8.22 L 18.2 38.873 a 1 1 0 1 0 -0.729 1.862 l 8.169 3.2 A 0.986 0.986 0 0 0 26 44 a 1 1 0 0 0 0.858 -0.485 L 31 36.61 V 48.594 l -21 -7.3 V 37.813 Z M 10 46.289 V 43.406 l 21 7.305 v 2.883 Z M 33 59.594 V 55.711 l 21 -7.3 v 3.883 Z M 54 43.406 v 2.883 L 33 53.594 V 50.711 Z" stroke-linecap="round" />
</g>
</g>
</g>
</svg>